<?xml version="1.0" encoding="UTF-8"?>
<svg id="Layer_1" data-name="Layer 1" xmlns="http://www.w3.org/2000/svg" viewBox="0 0 500 123.11">
  <defs>
    <style>
      .cls-1 {
        fill: #231f20;
      }
    </style>
  </defs>
  <g>
    <path class="cls-1" d="M237.7,59.16V19.1h29.24v6.29h-21.8v27.47h22.6v6.29h-30.04ZM244.57,41.87v-6.12h19.91v6.12h-19.91Z"/>
    <path class="cls-1" d="M276.04,59.16V19.1h7.44v40.06h-7.44Z"/>
    <path class="cls-1" d="M294.29,59.16V19.1h6.12l17.51,29.24h-3.2l17.22-29.24h6.12l.12,40.06h-7.15v-29.01h1.43l-14.53,24.49h-3.38l-14.88-24.49h1.72v29.01h-7.1Z"/>
    <path class="cls-1" d="M343.27,59.16l18.03-40.06h7.32l18.08,40.06h-7.84l-15.45-36.11h2.98l-15.51,36.11h-7.61ZM351.57,49.88l2.06-5.84h21.57l2,5.84h-25.64Z"/>
    <path class="cls-1" d="M391.8,59.16V19.1h6.12l25.12,30.9h-3.03v-30.9h7.33v40.06h-6.12l-25.06-30.9h3.03v30.9h-7.38Z"/>
    <path class="cls-1" d="M237.73,99.49v-28.23h19.36v2.58h-16.38v23.07h16.98v2.58h-19.96ZM240.39,86.42v-2.54h14.92v2.54h-14.92Z"/>
    <path class="cls-1" d="M270.88,99.73c-2.1,0-4.11-.34-6.03-1.03-1.92-.69-3.41-1.57-4.46-2.64l1.17-2.3c.99.97,2.33,1.78,4.01,2.44,1.68.66,3.45.99,5.3.99s3.22-.22,4.34-.67c1.12-.44,1.94-1.04,2.46-1.79s.79-1.59.79-2.5c0-1.1-.32-1.99-.95-2.66-.63-.67-1.46-1.2-2.48-1.59-1.02-.39-2.15-.73-3.39-1.03-1.24-.3-2.47-.61-3.71-.95-1.24-.34-2.37-.79-3.41-1.35-1.04-.57-1.87-1.31-2.5-2.24-.63-.93-.95-2.14-.95-3.65,0-1.4.37-2.68,1.11-3.85.74-1.17,1.88-2.11,3.41-2.82,1.53-.71,3.5-1.07,5.89-1.07,1.59,0,3.16.22,4.72.67,1.56.44,2.9,1.06,4.03,1.83l-1.01,2.38c-1.21-.81-2.49-1.4-3.85-1.78-1.36-.38-2.67-.56-3.93-.56-1.69,0-3.09.23-4.19.69-1.1.46-1.92,1.07-2.44,1.83-.52.77-.79,1.63-.79,2.6,0,1.1.32,1.99.95,2.66.63.67,1.46,1.2,2.5,1.57,1.04.38,2.17.71,3.41,1.01,1.24.3,2.47.62,3.69.97s2.35.8,3.39,1.35c1.04.55,1.87,1.28,2.5,2.2s.95,2.11.95,3.59c0,1.37-.38,2.64-1.13,3.81-.75,1.17-1.9,2.11-3.45,2.82-1.55.71-3.53,1.07-5.95,1.07Z"/>
    <path class="cls-1" d="M291.37,99.49v-25.65h-9.92v-2.58h22.83v2.58h-9.92v25.65h-2.98Z"/>
    <path class="cls-1" d="M301.49,99.49l12.91-28.23h2.94l12.91,28.23h-3.15l-11.86-26.5h1.21l-11.86,26.5h-3.11ZM306.57,91.95l.89-2.42h16.42l.89,2.42h-18.19Z"/>
    <path class="cls-1" d="M337.39,99.49v-25.65h-9.92v-2.58h22.83v2.58h-9.92v25.65h-2.98Z"/>
    <path class="cls-1" d="M353.44,99.49v-28.23h19.36v2.58h-16.38v23.07h16.98v2.58h-19.96ZM356.1,86.42v-2.54h14.92v2.54h-14.92Z"/>
    <path class="cls-1" d="M386.59,99.73c-2.1,0-4.11-.34-6.03-1.03-1.92-.69-3.41-1.57-4.46-2.64l1.17-2.3c.99.97,2.33,1.78,4.01,2.44,1.68.66,3.45.99,5.3.99s3.22-.22,4.34-.67c1.12-.44,1.94-1.04,2.46-1.79s.79-1.59.79-2.5c0-1.1-.32-1.99-.95-2.66-.63-.67-1.46-1.2-2.48-1.59-1.02-.39-2.15-.73-3.39-1.03-1.24-.3-2.47-.61-3.71-.95-1.24-.34-2.37-.79-3.41-1.35-1.04-.57-1.87-1.31-2.5-2.24-.63-.93-.95-2.14-.95-3.65,0-1.4.37-2.68,1.11-3.85.74-1.17,1.88-2.11,3.41-2.82,1.53-.71,3.5-1.07,5.89-1.07,1.59,0,3.16.22,4.72.67,1.56.44,2.9,1.06,4.03,1.83l-1.01,2.38c-1.21-.81-2.49-1.4-3.85-1.78-1.36-.38-2.67-.56-3.93-.56-1.69,0-3.09.23-4.19.69-1.1.46-1.92,1.07-2.44,1.83-.52.77-.79,1.63-.79,2.6,0,1.1.32,1.99.95,2.66.63.67,1.46,1.2,2.5,1.57,1.04.38,2.17.71,3.41,1.01,1.24.3,2.47.62,3.69.97s2.35.8,3.39,1.35c1.04.55,1.87,1.28,2.5,2.2s.95,2.11.95,3.59c0,1.37-.38,2.64-1.13,3.81-.75,1.17-1.9,2.11-3.45,2.82-1.55.71-3.53,1.07-5.95,1.07Z"/>
    <path class="cls-1" d="M410.95,99.49v-28.23h2.98v25.65h15.81v2.58h-18.79Z"/>
    <path class="cls-1" d="M435.48,99.49v-25.65h-9.92v-2.58h22.83v2.58h-9.92v25.65h-2.98Z"/>
    <path class="cls-1" d="M451.53,99.49v-28.23h11.5c3.01,0,5.65.6,7.92,1.79s4.04,2.86,5.3,4.98c1.26,2.12,1.9,4.57,1.9,7.34s-.63,5.22-1.9,7.34-3.03,3.78-5.3,4.98c-2.27,1.2-4.91,1.79-7.92,1.79h-11.5ZM454.51,96.91h8.35c2.5,0,4.67-.49,6.51-1.47,1.84-.98,3.27-2.34,4.29-4.07,1.02-1.73,1.53-3.73,1.53-5.99s-.51-4.29-1.53-6.01c-1.02-1.72-2.45-3.07-4.29-4.05-1.84-.98-4.01-1.47-6.51-1.47h-8.35v23.07Z"/>
    <path class="cls-1" d="M482.1,99.69c-.59,0-1.1-.22-1.51-.65s-.62-.95-.62-1.57.21-1.17.62-1.57.92-.6,1.51-.6,1.09.2,1.51.6c.42.4.62.93.62,1.57s-.21,1.14-.62,1.57c-.42.43-.92.65-1.51.65Z"/>
  </g>
  <g>
    <g>
      <path class="cls-1" d="M190.22,60.1c0,.75-.01,1.49-.04,2.23-.7,15.37-9.18,29.16-22.7,36.87-7.17,4.09-15.08,6.15-23,6.15-7.42,0-14.84-1.81-21.65-5.42l-7.59-4.04c-1.05-.56-.98-2.1.13-2.55l13.08-5.33c1.03-.42,2.17-.39,3.19.06,9.21,4.11,19.76,3.61,28.65-1.47,9.3-5.32,14.91-14.4,15.39-24.93.03-.51.03-1.04.03-1.57,0-6.64-1.89-13.06-5.49-18.61-7.96-12.27-23.86-17.06-37.78-11.37l-62.32,25.41c-3.96,1.62-8.52-.54-9.73-4.77-1.03-3.58.98-7.34,4.43-8.75l62.15-25.34c20.37-8.3,43.69-1.19,55.43,16.92,5.12,7.9,7.83,17.06,7.83,26.51Z"/>
      <path class="cls-1" d="M137.17,76.49l-62.32,25.41c-5.71,2.34-11.66,3.46-17.52,3.46-15.03,0-29.47-7.35-37.91-20.37-5.12-7.89-7.84-17.06-7.84-26.51,0-.74.03-1.49.05-2.22.7-15.39,9.18-29.16,22.7-36.88,13.88-7.93,30.57-8.19,44.64-.73l7.6,4.04c1.05.56.98,2.1-.13,2.55l-13.09,5.33c-1.03.42-2.17.39-3.19-.07-9.19-4.1-19.74-3.58-28.64,1.48-9.3,5.32-14.91,14.4-15.39,24.93-.03.51-.04,1.04-.04,1.57,0,6.64,1.9,13.08,5.5,18.61,7.96,12.28,23.84,17.06,37.78,11.39l62.32-25.41c3.72-1.52,7.94.26,9.46,3.97,1.5,3.71-.28,7.94-3.99,9.46Z"/>
    </g>
    <path class="cls-1" d="M77.41,76.14c-2.86,0-5.57-1.7-6.72-4.52-1.51-3.71.27-7.95,3.98-9.46l48.63-19.83c3.72-1.51,7.95.27,9.46,3.98,1.51,3.71-.27,7.95-3.98,9.46l-48.63,19.83c-.9.37-1.83.54-2.74.54Z"/>
  </g>
  <g>
    <path class="cls-1" d="M187.22,25.43v-6.46h-2.5v-.65h5.75v.65h-2.5v6.46h-.75Z"/>
    <path class="cls-1" d="M191.67,25.43v-7.11h.62l3.25,5.55h-.33l3.22-5.55h.62v7.11h-.72v-5.99h.17l-2.97,5.08h-.36l-2.99-5.08h.19v5.99h-.72Z"/>
  </g>
</svg>