<?xml version="1.0" encoding="UTF-8"?>
<svg id="Layer_1" data-name="Layer 1" xmlns="http://www.w3.org/2000/svg" viewBox="0 0 500 193.75">
  <defs>
    <style>
      .cls-1 {
        fill: #231f20;
      }
    </style>
  </defs>
  <path class="cls-1" d="M18.1,98.91V23.29h55.2v11.89h-41.16v51.85h42.67v11.89H18.1ZM31.06,66.29v-11.56h37.59v11.56H31.06Z"/>
  <path class="cls-1" d="M90.47,98.91V23.29h14.04v75.62h-14.04Z"/>
  <path class="cls-1" d="M124.94,98.91V23.29h11.56l33.06,55.21h-6.05l32.52-55.21h11.56l.22,75.62h-13.5v-54.77h2.7l-27.44,46.24h-6.37l-28.09-46.24h3.24v54.77h-13.4Z"/>
  <path class="cls-1" d="M217.41,98.91l34.03-75.62h13.83l34.14,75.62h-14.8l-29.17-68.17h5.62l-29.28,68.17h-14.37ZM233.07,81.41l3.89-11.02h40.73l3.78,11.02h-48.4Z"/>
  <path class="cls-1" d="M309.02,98.91V23.29h11.56l47.42,58.34h-5.73V23.29h13.83v75.62h-11.56l-47.32-58.34h5.73v58.34h-13.94Z"/>
  <path class="cls-1" d="M18.14,175.06v-53.3h36.55v4.87h-30.91v43.55h32.06v4.88H18.14ZM23.17,150.39v-4.8h28.17v4.8h-28.17Z"/>
  <path class="cls-1" d="M80.73,175.51c-3.96,0-7.75-.65-11.38-1.94-3.63-1.29-6.43-2.95-8.41-4.99l2.21-4.34c1.88,1.82,4.4,3.36,7.58,4.6,3.17,1.24,6.51,1.86,10.01,1.86s6.08-.42,8.19-1.26c2.11-.84,3.66-1.96,4.64-3.39.99-1.42,1.49-2.99,1.49-4.72,0-2.08-.6-3.76-1.79-5.03-1.19-1.27-2.75-2.27-4.68-3.01-1.93-.73-4.06-1.38-6.4-1.94-2.34-.56-4.67-1.15-7.01-1.79-2.34-.64-4.48-1.49-6.43-2.55-1.95-1.07-3.53-2.48-4.72-4.23-1.19-1.75-1.79-4.05-1.79-6.89,0-2.64.7-5.07,2.09-7.27,1.4-2.21,3.54-3.99,6.43-5.33,2.89-1.35,6.6-2.02,11.12-2.02,2.99,0,5.96.42,8.91,1.26,2.94.84,5.48,1.99,7.61,3.46l-1.9,4.49c-2.28-1.52-4.71-2.64-7.27-3.35-2.56-.71-5.04-1.07-7.42-1.07-3.2,0-5.84.43-7.92,1.29-2.08.86-3.62,2.02-4.61,3.46-.99,1.45-1.49,3.08-1.49,4.91,0,2.08.6,3.76,1.79,5.02,1.19,1.27,2.77,2.26,4.72,2.97,1.95.72,4.1,1.35,6.43,1.91,2.33.56,4.66,1.17,6.97,1.83,2.31.66,4.44,1.51,6.4,2.55,1.95,1.04,3.53,2.43,4.72,4.15,1.19,1.73,1.79,3.99,1.79,6.78,0,2.59-.71,4.99-2.13,7.19-1.42,2.21-3.59,3.99-6.51,5.33-2.92,1.35-6.66,2.01-11.23,2.01Z"/>
  <path class="cls-1" d="M119.41,175.06v-48.43h-18.73v-4.87h43.1v4.87h-18.73v48.43h-5.63Z"/>
  <path class="cls-1" d="M138.53,175.06l24.37-53.3h5.56l24.36,53.3h-5.94l-22.39-50.03h2.28l-22.39,50.03h-5.86ZM148.12,160.82l1.67-4.57h30.99l1.67,4.57h-34.34Z"/>
  <path class="cls-1" d="M206.29,175.06v-48.43h-18.73v-4.87h43.1v4.87h-18.73v48.43h-5.63Z"/>
  <path class="cls-1" d="M236.6,175.06v-53.3h36.55v4.87h-30.91v43.55h32.06v4.88h-37.69ZM241.62,150.39v-4.8h28.17v4.8h-28.17Z"/>
  <path class="cls-1" d="M299.19,175.51c-3.96,0-7.75-.65-11.38-1.94-3.63-1.29-6.43-2.95-8.41-4.99l2.21-4.34c1.88,1.82,4.4,3.36,7.58,4.6,3.17,1.24,6.51,1.86,10.01,1.86s6.08-.42,8.19-1.26c2.11-.84,3.66-1.96,4.64-3.39.99-1.42,1.49-2.99,1.49-4.72,0-2.08-.6-3.76-1.79-5.03-1.19-1.27-2.75-2.27-4.68-3.01-1.93-.73-4.06-1.38-6.4-1.94-2.34-.56-4.67-1.15-7.01-1.79-2.34-.64-4.48-1.49-6.43-2.55-1.95-1.07-3.53-2.48-4.72-4.23-1.19-1.75-1.79-4.05-1.79-6.89,0-2.64.7-5.07,2.09-7.27,1.4-2.21,3.54-3.99,6.43-5.33,2.89-1.35,6.6-2.02,11.12-2.02,2.99,0,5.96.42,8.91,1.26,2.94.84,5.48,1.99,7.61,3.46l-1.9,4.49c-2.28-1.52-4.71-2.64-7.27-3.35-2.56-.71-5.04-1.07-7.42-1.07-3.2,0-5.84.43-7.92,1.29-2.08.86-3.62,2.02-4.61,3.46-.99,1.45-1.49,3.08-1.49,4.91,0,2.08.6,3.76,1.79,5.02,1.19,1.27,2.77,2.26,4.72,2.97,1.95.72,4.1,1.35,6.43,1.91,2.33.56,4.66,1.17,6.97,1.83,2.31.66,4.44,1.51,6.4,2.55,1.95,1.04,3.53,2.43,4.72,4.15,1.19,1.73,1.79,3.99,1.79,6.78,0,2.59-.71,4.99-2.13,7.19-1.42,2.21-3.59,3.99-6.51,5.33-2.92,1.35-6.66,2.01-11.23,2.01Z"/>
  <path class="cls-1" d="M345.18,175.06v-53.3h5.63v48.42h29.85v4.88h-35.48Z"/>
  <path class="cls-1" d="M391.47,175.06v-48.43h-18.73v-4.87h43.1v4.87h-18.73v48.43h-5.63Z"/>
  <path class="cls-1" d="M421.77,175.06v-53.3h21.7c5.68,0,10.67,1.13,14.96,3.38,4.29,2.26,7.63,5.4,10.01,9.4,2.39,4.01,3.58,8.63,3.58,13.86s-1.19,9.85-3.58,13.86c-2.39,4.01-5.72,7.15-10.01,9.4-4.29,2.26-9.28,3.39-14.96,3.39h-21.7ZM427.41,170.19h15.76c4.72,0,8.82-.93,12.3-2.78,3.48-1.86,6.18-4.42,8.11-7.69,1.93-3.27,2.89-7.04,2.89-11.31s-.97-8.1-2.89-11.34c-1.93-3.25-4.63-5.8-8.11-7.65-3.48-1.86-7.58-2.78-12.3-2.78h-15.76v43.55Z"/>
  <path class="cls-1" d="M479.49,175.44c-1.12,0-2.07-.41-2.85-1.22-.79-.81-1.18-1.8-1.18-2.97s.39-2.21,1.18-2.97c.79-.76,1.74-1.14,2.85-1.14s2.07.38,2.86,1.14c.79.76,1.18,1.75,1.18,2.97s-.39,2.16-1.18,2.97c-.79.81-1.74,1.22-2.86,1.22Z"/>
</svg>