<?xml version="1.0" encoding="UTF-8"?>
<svg id="Layer_1" data-name="Layer 1" xmlns="http://www.w3.org/2000/svg" viewBox="0 0 500 193.75">
  <defs>
    <style>
      .cls-1 {
        fill: #231f20;
      }

      .cls-2 {
        fill: #a3916d;
      }
    </style>
  </defs>
  <g>
    <path class="cls-1" d="M93.73,77.44l1.12-1.12c.5.25,1.15,1,1.96,2.24.81,1.24,1.31,2.36,1.49,3.36.19,1,.28,1.93.28,2.8,0,3.36-.75,6.78-2.24,10.26l-35.83,74.65h-1.87L23.93,76.32h13.06l28.55,77.26,28.93-58.6c1.49-2.61,2.24-5.72,2.24-9.33s-1-6.35-2.99-8.21Z"/>
    <path class="cls-1" d="M118.29,124.1c0,15.43,2.71,26.75,8.12,33.97,5.41,7.22,12.53,10.82,21.37,10.82,12.44,0,23.52-1.87,33.22-5.6l.56,1.31c-9.96,3.86-21.18,5.79-33.69,5.79s-22.68-3.73-30.51-11.2c-7.84-7.47-11.76-18.97-11.76-34.53s4.11-27.62,12.32-36.21c8.21-8.58,18.66-12.88,31.35-12.88,10.2,0,18.79,3.05,25.75,9.14,6.97,6.1,10.45,15.12,10.45,27.06v1.87h-66.63c-.37,3.36-.56,6.84-.56,10.45ZM165.88,85.65c-4.48-5.72-10.26-8.58-17.36-8.58s-13.41,3.11-18.94,9.33c-5.54,6.22-9.05,14.81-10.54,25.75h53.75c-.13-11.94-2.43-20.78-6.9-26.5Z"/>
    <path class="cls-1" d="M222.43,168.14h5.79v1.49h-5.79c-10.95,0-17.86-2.86-20.72-8.58-.62-1.24-.93-2.36-.93-3.36V29.85h13.06v126.53c0,3.61.85,6.28,2.15,8.3,2.33,3.65,6.44,3.45,6.44,3.45Z"/>
    <path class="cls-1" d="M378.81,84.35v-3.92c-5.6,2.24-10.7,6.75-15.3,13.53-4.6,6.78-7.03,13.16-7.28,19.13v56.55h-13.06v-93.31h13.06v29.67c1.99-7.21,5.79-14.03,11.38-20.44,5.6-6.41,11.94-9.73,19.04-9.98h.75c2.49,0,4.57.84,6.25,2.52,1.68,1.68,2.52,3.76,2.52,6.25s-.84,4.54-2.52,6.16c-1.68,1.62-3.76,2.43-6.25,2.43s-4.54-.81-6.16-2.43c-1.62-1.62-2.43-3.67-2.43-6.16Z"/>
    <path class="cls-1" d="M455.93,92.09c0-1.08.03-2.43-.65-4.11-.69-1.68-1.59-3.33-2.71-4.95-1.12-1.62-3.11-3.02-5.97-4.2-2.86-1.18-6.6-1.77-11.2-1.77s-9.98.84-16.14,2.52c-6.16,1.68-10.67,3.33-13.53,4.95l-.75-1.31c11.07-5.1,22.33-7.65,33.78-7.65,12.81,0,21.28,2.3,25.38,6.9,3.23,3.61,4.85,7.4,4.85,11.38v62.52c0,3.61.71,6.38,2.15,8.3,2.74,3.67,6.44,3.45,6.44,3.45h5.79v1.49h-5.79c-8.46,0-15.13-1.01-18.24-4.25-2.86-2.74-3.41-5.7-3.41-7.69v-3.92c-6.1,11.08-15.86,16.61-29.3,16.61-15.68,0-24.57-7.09-26.69-21.28-.25-1.49-.37-3.02-.37-4.57s.25-3.27.75-5.13c.5-1.87,1.93-3.92,4.29-6.16,4.73-4.48,15.12-7.21,31.17-8.21,3.98-.37,7.65-.56,11.01-.56s6.41.12,9.14.37v-32.75ZM429.62,168.89c6.59,0,12.53-2.27,17.82-6.81,5.29-4.54,8.12-8.93,8.49-13.16v-22.58c-3.36-.25-6.75-.37-10.17-.37s-6.81.19-10.17.56c-9.46,1.12-15.62,3.24-18.48,6.35-2.86,3.11-4.29,7.4-4.29,12.88,0,1,.06,2.12.19,3.36,1.12,13.19,6.65,19.78,16.61,19.78Z"/>
    <g>
      <path class="cls-2" d="M295.61,162.23c16.98-7.73,26.27-25.89,22.63-43.04-4.1-19.3-23.55-32.42-41.44-29.62-10.61,1.66-22.94,9.27-26.81,22.73-2.82,9.83-.58,20.88,6.29,28.89,8.21,9.57,21.74,13.29,34.32,9.39,10.31-3.78,5.5,3.57.4,7.37-3.76,2.96-8.18,4.34-12.27,6.04-1.81,1.27,2.02,1.77,3.16,1.93,2.97.36,6.4.06,7.37,1,.26.23.38.52.29.86-1.89,3.53-10.92,2.85-14.69,2.6-22.67-2.06-41.47-21.54-42.71-44.24-2.25-32.65,29.04-58.17,60.56-49.09,30.06,8.37,43.95,43.78,27.81,70.41-2.31,3.64-4.88,7.54-8.44,10.06-.83.53-1.31.42-.82-.46,2.02-3.09,6.72-7.54,8.18-11.31.9-2,1.09-3.51.19-2.8-1.9,1.95-3.51,4.85-5.39,6.99-3.28,4.03-6.63,7.32-10.86,9.89-2.63,1.5-5.87,3.55-8.89,3.79-.11-.02-.17-.05-.2-.11-.09-.19.35-.62,1.31-1.28Z"/>
      <path class="cls-2" d="M299.6,166.34c-.84.37-2.51.02-1.34-1.1,1.29-1.04,3.03-1.66,4.46-2.52.76-.43,2.94-1.57,2.92-.07-.2.64-.79.95-1.44,1.34-1.22.64-3.25,1.83-4.46,2.31l-.13.04Z"/>
    </g>
  </g>
  <g>
    <path class="cls-1" d="M468.67,71.58v-7.71h-2.98v-.78h6.86v.78h-2.98v7.71h-.9Z"/>
    <path class="cls-1" d="M473.98,71.58v-8.49h.74l3.88,6.62h-.39l3.84-6.62h.74v8.49h-.86v-7.14h.21l-3.54,6.06h-.42l-3.56-6.06h.23v7.14h-.86Z"/>
  </g>
</svg>