<svg width="512" height="512" viewBox="0 0 512 512" fill="none" xmlns="http://www.w3.org/2000/svg">
<path d="M339.949 105.955C340.972 106.35 342.064 106.53 343.159 106.484C344.254 106.439 345.327 106.169 346.313 105.691C374.036 92.2682 376.689 71.3641 378.821 54.5681C379.801 46.8411 380.728 39.5441 383.831 33.4741C384.568 32.0321 384.85 30.4004 384.639 28.7948C384.429 27.1892 383.736 25.6853 382.653 24.4818C381.569 23.2782 380.146 22.4317 378.572 22.0542C376.997 21.6766 375.345 21.7857 373.833 22.3671C356.646 28.9861 342.812 41.9421 335.876 57.9131C329.753 72.0131 329.591 87.0802 335.409 101.486C335.82 102.502 336.434 103.423 337.215 104.192C337.996 104.961 338.927 105.561 339.949 105.955ZM350.552 64.2862C353.402 57.7232 357.988 51.7081 363.714 46.7931C363.435 48.7221 363.191 50.6461 362.949 52.5541C361.221 66.1681 359.797 77.3862 347.68 86.3372C346.497 78.9042 347.455 71.4162 350.552 64.2862ZM418.171 227.347C407.321 195.856 397.952 168.659 413.493 136.693C414.115 135.414 414.385 133.993 414.275 132.575C414.165 131.157 413.679 129.795 412.867 128.627C412.055 127.46 410.947 126.53 409.656 125.933C408.365 125.337 406.939 125.095 405.523 125.233C380.204 127.698 351.083 144.604 332.297 177.074C328.144 158.711 319.589 143.256 311.678 128.964C294.255 97.4902 279.209 70.3101 313.984 20.6201C314.815 19.4333 315.308 18.0432 315.41 16.5982C315.512 15.1532 315.22 13.7075 314.565 12.4155C313.91 11.1234 312.916 10.0335 311.69 9.26208C310.464 8.49062 309.052 8.06655 307.603 8.03515C259.218 6.99915 214.416 30.2661 187.81 70.3101C165.953 103.206 160.927 140.832 174.366 170.962C183.465 191.361 183.474 208.708 174.392 217.364C168.495 222.983 159.399 223.73 150.654 219.313C133.415 210.608 117.383 182.426 124.084 129.439C124.32 127.57 123.889 125.677 122.866 124.095C121.844 122.513 120.295 121.342 118.494 120.789C116.693 120.237 114.754 120.337 113.02 121.074C111.286 121.81 109.867 123.135 109.014 124.815C85.1204 171.899 74.8524 227.954 80.8434 278.609C87.2324 332.638 111.481 377.489 149.214 405.271C154.744 423.59 163.95 440.59 176.27 455.232C197.54 480.508 227.041 497.53 259.341 503.16C261.138 503.473 263.017 504 264.849 504C266.672 504 268.564 503.473 270.356 503.16C302.655 497.53 332.157 480.509 353.427 455.232C368.025 437.884 378.123 417.384 383.025 395.634C396.287 384.016 407.361 370.43 415.957 355.207C444.69 304.321 430.602 263.427 418.171 227.347ZM370.425 365.171C370.425 425.609 327.184 477.013 267.608 487.399L264.849 487.879L262.089 487.399C202.512 477.013 159.272 425.609 159.272 365.171V278.609L264.849 233.363L370.426 278.609V365.171H370.425ZM402.024 347.34C397.545 355.271 392.293 362.74 386.344 369.638C386.392 368.151 386.425 366.662 386.425 365.171V273.333C386.425 270.133 384.518 267.24 381.576 265.979L268 217.305C267.004 216.879 265.932 216.659 264.849 216.659C263.766 216.659 262.693 216.879 261.697 217.305L148.12 265.979C146.681 266.596 145.455 267.622 144.593 268.929C143.731 270.236 143.272 271.767 143.271 273.333V365.171C143.271 370.149 143.545 375.109 144.078 380.029C91.8904 329.388 84.5704 243.589 107.527 170.804C108.676 180.615 110.81 189.645 113.925 197.846C120.243 214.48 130.726 227.176 143.441 233.597C158.177 241.037 174.658 239.213 185.429 228.948C199.629 215.415 200.955 191.302 188.977 164.446C177.784 139.35 182.329 107.469 201.135 79.1662C221.955 47.8312 255.358 28.0911 292.453 24.5701C263.327 74.6581 280.767 106.165 297.677 136.713C310.54 159.949 322.689 181.898 317.737 213.847C317.422 215.88 317.902 217.957 319.078 219.645C320.254 221.333 322.035 222.503 324.051 222.912C328.24 223.768 332.357 221.169 333.4 217.024C343.684 176.156 369.033 152.321 393.39 144.137C383.596 176.116 393.461 204.749 403.042 232.558C415.475 268.642 427.218 302.725 402.024 347.34ZM176.821 360.329C176.821 408.867 216.31 448.356 264.849 448.356C313.388 448.356 352.877 408.867 352.877 360.329C352.877 311.79 313.388 272.301 264.849 272.301C216.31 272.301 176.821 311.79 176.821 360.329ZM336.876 360.329C336.876 400.045 304.564 432.356 264.848 432.356C225.132 432.356 192.82 400.044 192.82 360.329C192.82 320.612 225.132 288.301 264.848 288.301C304.564 288.301 336.876 320.612 336.876 360.329ZM241.635 346.65C234.208 339.224 222.121 339.223 214.692 346.651C207.265 354.08 207.265 366.166 214.692 373.593L239.438 398.338C243.152 402.052 248.031 403.908 252.909 403.908C257.787 403.908 262.666 402.051 266.38 398.338C279.779 384.939 307.28 357.019 315.049 349.172C316.816 347.405 318.215 345.305 319.165 342.993C320.115 340.682 320.597 338.205 320.583 335.706C320.583 333.207 320.088 330.733 319.125 328.427C318.162 326.122 316.752 324.029 314.975 322.272C313.215 320.512 311.124 319.116 308.823 318.167C306.521 317.217 304.055 316.731 301.565 316.738H301.509C296.429 316.753 291.658 318.745 288.065 322.357L252.865 357.879L241.635 346.65ZM258.574 374.852L299.421 333.631C299.701 333.349 300.034 333.125 300.4 332.972C300.766 332.819 301.159 332.74 301.556 332.739H301.564C302.034 332.739 302.927 332.854 303.694 333.618C303.977 333.899 304.201 334.232 304.355 334.6C304.508 334.968 304.586 335.362 304.586 335.76C304.586 336.159 304.507 336.553 304.354 336.921C304.201 337.288 303.976 337.622 303.693 337.902C295.9 345.774 268.423 373.669 255.068 387.024C254.495 387.595 253.72 387.915 252.911 387.915C252.102 387.915 251.326 387.595 250.753 387.024L226.008 362.279C225.437 361.706 225.117 360.931 225.117 360.122C225.117 359.313 225.437 358.538 226.008 357.965C226.292 357.681 226.628 357.457 226.999 357.303C227.369 357.15 227.766 357.071 228.167 357.072C228.948 357.072 229.729 357.37 230.324 357.965L247.237 374.878C248.742 376.383 250.745 377.252 252.912 377.221C253.966 377.218 255.008 377.008 255.98 376.601C256.951 376.195 257.833 375.6 258.574 374.852Z" fill="#AB8A50"/>
</svg>
