<svg width="512" height="512" viewBox="0 0 512 512" fill="none" xmlns="http://www.w3.org/2000/svg">
<path d="M103.975 8H16C13.8783 8 11.8434 8.84285 10.3431 10.3431C8.84285 11.8434 8 13.8783 8 16V496C8 498.122 8.84285 500.157 10.3431 501.657C11.8434 503.157 13.8783 504 16 504H103.975C106.097 504 108.132 503.157 109.632 501.657C111.132 500.157 111.975 498.122 111.975 496V16C111.975 13.8783 111.132 11.8434 109.632 10.3431C108.132 8.84285 106.097 8 103.975 8ZM95.975 488H24V444H39.763C41.8847 444 43.9196 443.157 45.4199 441.657C46.9201 440.157 47.763 438.122 47.763 436C47.763 433.878 46.9201 431.843 45.4199 430.343C43.9196 428.843 41.8847 428 39.763 428H24V384H49.166C51.2877 384 53.3226 383.157 54.8229 381.657C56.3231 380.157 57.166 378.122 57.166 376C57.166 373.878 56.3231 371.843 54.8229 370.343C53.3226 368.843 51.2877 368 49.166 368H24V324H39.763C41.8847 324 43.9196 323.157 45.4199 321.657C46.9201 320.157 47.763 318.122 47.763 316C47.763 313.878 46.9201 311.843 45.4199 310.343C43.9196 308.843 41.8847 308 39.763 308H24V264H49.166C51.2877 264 53.3226 263.157 54.8229 261.657C56.3231 260.157 57.166 258.122 57.166 256C57.166 253.878 56.3231 251.843 54.8229 250.343C53.3226 248.843 51.2877 248 49.166 248H24V204H39.763C41.8847 204 43.9196 203.157 45.4199 201.657C46.9201 200.157 47.763 198.122 47.763 196C47.763 193.878 46.9201 191.843 45.4199 190.343C43.9196 188.843 41.8847 188 39.763 188H24V144H49.166C51.2877 144 53.3226 143.157 54.8229 141.657C56.3231 140.157 57.166 138.122 57.166 136C57.166 133.878 56.3231 131.843 54.8229 130.343C53.3226 128.843 51.2877 128 49.166 128H24V84H39.763C41.8847 84 43.9196 83.1571 45.4199 81.6569C46.9201 80.1566 47.763 78.1217 47.763 76C47.763 73.8783 46.9201 71.8434 45.4199 70.3431C43.9196 68.8429 41.8847 68 39.763 68H24V24H95.975V488ZM443.997 478.371C443.997 479.587 443.72 480.786 443.187 481.879C442.654 482.971 441.879 483.928 440.921 484.676L418.347 502.305C416.944 503.405 415.212 504.001 413.429 504C411.763 504.001 410.137 503.483 408.78 502.516C407.423 501.549 406.401 500.182 405.858 498.606C405.315 497.031 405.278 495.325 405.751 493.727C406.225 492.13 407.185 490.719 408.499 489.694L412.756 486.37H163.609L167.866 489.694C168.699 490.339 169.397 491.142 169.919 492.057C170.44 492.972 170.776 493.981 170.907 495.027C171.038 496.072 170.961 497.133 170.681 498.148C170.401 499.164 169.923 500.114 169.274 500.944C168.626 501.775 167.82 502.469 166.903 502.987C165.985 503.505 164.975 503.836 163.929 503.963C162.883 504.089 161.822 504.007 160.808 503.723C159.794 503.438 158.845 502.956 158.018 502.304L135.444 484.675C134.486 483.927 133.711 482.97 133.178 481.878C132.645 480.785 132.368 479.586 132.368 478.37C132.368 477.154 132.645 475.955 133.178 474.862C133.711 473.77 134.486 472.813 135.444 472.065L158.019 454.436C158.846 453.784 159.795 453.302 160.809 453.017C161.823 452.733 162.884 452.651 163.93 452.777C164.976 452.904 165.986 453.235 166.904 453.753C167.821 454.271 168.627 454.965 169.275 455.796C169.924 456.626 170.402 457.576 170.682 458.592C170.962 459.607 171.039 460.668 170.908 461.713C170.777 462.759 170.441 463.768 169.92 464.683C169.398 465.598 168.7 466.401 167.867 467.046L163.611 470.37H412.756L408.5 467.046C406.828 465.74 405.743 463.823 405.484 461.717C405.225 459.612 405.813 457.489 407.119 455.817C408.425 454.145 410.342 453.06 412.447 452.801C414.553 452.542 416.676 453.13 418.348 454.436L440.923 472.065C441.88 472.814 442.655 473.771 443.187 474.863C443.72 475.956 443.997 477.156 443.997 478.371ZM140.366 443.998H424.112C426.234 443.998 428.269 443.155 429.769 441.655C431.269 440.155 432.112 438.12 432.112 435.998V151.817C432.112 149.695 431.269 147.66 429.769 146.16C428.269 144.66 426.234 143.817 424.112 143.817H387.728C393.172 132.166 396.519 120.477 396.519 109.069C396.519 64.112 359.944 27.538 314.988 27.538C270.032 27.538 233.456 64.113 233.456 109.069C233.456 120.477 236.802 132.165 242.247 143.817H140.367C138.245 143.817 136.21 144.66 134.71 146.16C133.21 147.66 132.367 149.695 132.367 151.817V435.998C132.367 437.049 132.574 438.089 132.976 439.059C133.378 440.03 133.967 440.912 134.71 441.655C135.452 442.398 136.334 442.987 137.305 443.389C138.275 443.791 139.315 443.998 140.366 443.998ZM148.366 255.45L179.835 223.981L347.405 427.998H148.366V255.45ZM368.11 427.998L333.285 385.599L416.112 302.772V427.999H368.11V427.998ZM314.988 43.538C351.122 43.538 380.519 72.935 380.519 109.069C380.519 139.962 346.359 178.892 321.416 207.317C319.207 209.836 317.057 212.285 314.987 214.663C312.917 212.285 310.768 209.836 308.559 207.318C283.616 178.892 249.455 139.962 249.455 109.069C249.456 72.935 278.854 43.538 314.988 43.538ZM296.533 217.872C300.964 222.921 305.149 227.69 308.879 232.101C309.63 232.989 310.566 233.702 311.62 234.192C312.675 234.681 313.824 234.935 314.987 234.935C316.15 234.935 317.299 234.681 318.354 234.192C319.409 233.702 320.344 232.989 321.095 232.101C324.825 227.69 329.011 222.92 333.442 217.87L337.295 213.475C369.521 216.227 383.545 223.823 385.82 226.948C384.589 228.55 379.319 232.468 365.626 235.936C351.765 239.447 333.781 241.381 314.987 241.381C296.193 241.381 278.21 239.447 264.348 235.936C250.655 232.468 245.385 228.549 244.154 226.948C246.428 223.823 260.453 216.227 292.679 213.475C293.974 214.954 295.263 216.424 296.533 217.872ZM280.028 198.805C258.693 201.724 227.967 209.042 227.967 226.959C227.967 250.973 282.666 257.38 314.987 257.38C347.308 257.38 402.007 250.973 402.007 226.959C402.007 209.042 371.281 201.724 349.946 198.805C360.422 186.387 370.745 173.225 379.008 159.816H416.112V280.143L323.081 373.174L191.203 212.613L243.999 159.817H250.967C259.229 173.225 269.553 186.387 280.028 198.805ZM221.372 159.817L148.367 232.823V159.817H221.372ZM502.305 418.343L484.676 440.918C483.928 441.876 482.971 442.651 481.879 443.184C480.786 443.717 479.587 443.994 478.371 443.994C477.155 443.994 475.956 443.717 474.863 443.184C473.771 442.651 472.814 441.876 472.066 440.918L454.437 418.344C453.142 416.671 452.562 414.553 452.825 412.454C453.088 410.354 454.172 408.444 455.839 407.142C457.507 405.84 459.622 405.251 461.723 405.505C463.823 405.759 465.738 406.834 467.047 408.496L470.371 412.753V183.606L467.046 187.863C465.74 189.535 463.823 190.62 461.717 190.879C459.612 191.138 457.489 190.55 455.817 189.244C454.145 187.938 453.06 186.021 452.801 183.916C452.542 181.81 453.13 179.687 454.436 178.015L472.066 155.441C472.814 154.483 473.771 153.708 474.863 153.175C475.956 152.642 477.155 152.365 478.371 152.365C479.587 152.365 480.786 152.642 481.879 153.175C482.971 153.708 483.928 154.483 484.676 155.441L502.304 178.015C503.599 179.688 504.179 181.806 503.916 183.905C503.653 186.005 502.569 187.915 500.902 189.217C499.234 190.519 497.119 191.108 495.018 190.854C492.918 190.6 491.003 189.525 489.694 187.863L486.371 183.607V412.751L489.695 408.495C491.004 406.833 492.919 405.758 495.019 405.504C497.12 405.25 499.235 405.839 500.903 407.141C502.57 408.443 503.654 410.353 503.917 412.453C504.18 414.552 503.6 416.67 502.305 418.343ZM370.509 109.069C370.509 78.455 345.602 53.548 314.988 53.548C284.374 53.548 259.467 78.454 259.467 109.069C259.467 139.684 284.374 164.59 314.988 164.59C345.602 164.59 370.509 139.684 370.509 109.069ZM275.467 109.069C275.467 87.277 293.196 69.548 314.988 69.548C336.78 69.548 354.509 87.277 354.509 109.069C354.509 130.861 336.78 148.59 314.988 148.59C293.196 148.59 275.467 130.861 275.467 109.069Z" fill="#AB8A50"/>
</svg>
