<svg width="512" height="512" viewBox="0 0 512 512" fill="none" xmlns="http://www.w3.org/2000/svg">
<g clip-path="url(#clip0_108_296)">
<path fill-rule="evenodd" clip-rule="evenodd" d="M73.1865 413.919L66.5878 410.92L45.292 389.624C36.8936 381.225 49.4912 368.328 57.8895 376.726L73.1865 392.023L125.376 339.833C133.775 331.435 146.372 344.333 137.974 352.731C131.675 359.03 79.4853 412.419 76.7858 413.019L73.1865 413.919ZM502.703 511.7H116.378C111.579 511.7 107.68 507.501 107.68 502.702V465.509C51.5908 475.407 0.300781 432.215 0.300781 375.527C0.300781 332.335 30.5949 295.742 71.087 286.444L34.1942 66.5869C33.2943 61.1879 37.4935 56.0889 43.1924 56.0889H107.68V9.29805C107.68 4.19904 111.579 0.299805 116.378 0.299805H502.703C507.502 0.299805 511.701 4.19904 511.701 9.29805V502.702C511.701 507.501 507.502 511.7 502.703 511.7ZM125.376 493.703H493.704V18.2963H125.376V290.643C202.161 321.237 201.861 430.116 125.376 460.41V493.703ZM107.68 285.544V74.0854H53.6904L89.0834 284.044L107.68 285.544ZM91.7829 302.041C51.2908 302.041 18.2973 335.034 18.2973 375.527C18.2973 416.019 51.2908 449.012 91.7829 449.012C132.275 449.012 164.969 416.019 164.969 375.527C164.969 334.135 131.375 302.041 91.7829 302.041ZM457.412 332.335H204.561C192.863 332.335 192.863 314.338 204.561 314.338H457.412C469.109 314.338 469.109 332.335 457.412 332.335ZM457.412 377.026H204.561C192.863 377.026 192.863 359.03 204.561 359.03H457.412C469.109 359.03 469.109 377.026 457.412 377.026ZM457.412 422.017H204.561C192.863 422.017 192.863 404.021 204.561 404.021H457.412C469.109 404.021 469.109 422.017 457.412 422.017ZM457.412 467.009H161.969C149.972 467.009 149.972 449.012 161.969 449.012H457.412C469.109 449.012 469.109 467.009 457.412 467.009ZM457.412 150.87H347.633C342.534 150.87 338.635 146.671 338.635 141.872V98.9805C338.635 93.8815 342.534 89.9823 347.633 89.9823H457.412C462.211 89.9823 466.41 93.8815 466.41 98.9805V141.872C466.41 146.671 462.211 150.87 457.412 150.87ZM356.331 132.874H448.413V107.979H356.331V132.874ZM457.412 287.344H288.844C284.045 287.344 279.846 283.445 279.846 278.346V235.454C279.846 230.655 284.045 226.456 288.844 226.456H457.412C462.211 226.456 466.11 230.655 466.11 235.454V278.346C466.41 283.445 462.211 287.344 457.412 287.344ZM297.843 269.347H448.413V244.452H297.843V269.347ZM253.751 282.845H161.969C149.972 282.845 149.972 264.848 161.969 264.848H253.751C265.749 264.848 265.749 282.845 253.751 282.845ZM253.751 248.951H161.969C149.972 248.951 149.972 230.955 161.969 230.955H253.751C265.749 230.955 265.749 248.951 253.751 248.951ZM234.555 205.76C228.556 205.76 152.971 176.665 152.971 73.7855C152.971 67.7866 158.37 62.9876 165.269 65.3871C165.269 65.3871 199.462 78.2846 227.356 41.3918C230.956 36.5927 238.154 36.5927 241.754 41.3918C269.348 78.2846 303.841 65.3871 303.841 65.3871C310.14 62.9876 316.139 67.7866 316.139 73.7855C316.139 176.665 240.254 205.76 234.555 205.76ZM171.267 84.8833C175.767 157.769 222.257 182.064 234.555 187.163C246.553 182.064 293.344 157.769 297.843 84.8833C283.146 86.6829 257.651 85.4832 234.555 60.888C211.46 85.4832 185.965 86.6829 171.267 84.8833Z" fill="#AB8A50"/>
</g>
<defs>
<clipPath id="clip0_108_296">
<rect width="512" height="512" fill="white"/>
</clipPath>
</defs>
</svg>
