<?xml version="1.0" encoding="UTF-8"?>
<svg id="Layer_1" xmlns="http://www.w3.org/2000/svg" version="1.1" viewBox="0 0 467.25 100.73">
  <!-- Generator: Adobe Illustrator 30.2.0, SVG Export Plug-In . SVG Version: 2.1.1 Build 105)  -->
  <defs>
    <style>
      .st0 {
        fill: #fff;
      }
    </style>
  </defs>
  <g>
    <path class="st0" d="M355.41,61.35v-28.79h3.04v28.79h-3.04Z"/>
    <path class="st0" d="M367.83,61.35v-28.79h2.51l19.87,25.01h-1.32v-25.01h3v28.79h-2.51l-19.83-25.01h1.31v25.01h-3.04Z"/>
    <path class="st0" d="M396.67,61.35l13.16-28.79h3l13.16,28.79h-3.21l-12.09-27.03h1.23l-12.09,27.03h-3.17ZM401.85,53.66l.9-2.47h16.74l.9,2.47h-18.55Z"/>
    <path class="st0" d="M430.77,61.35v-28.79h2.51l19.87,25.01h-1.32v-25.01h3v28.79h-2.51l-19.83-25.01h1.31v25.01h-3.04Z"/>
    <path class="st0" d="M464.21,61.35v-28.79h3.04v28.79h-3.04Z"/>
  </g>
  <g>
    <g>
      <path class="st0" d="M49.96,34.06l.8-.8c.35.18.82.71,1.4,1.6.58.89.93,1.69,1.07,2.4.13.71.2,1.38.2,2,0,2.4-.53,4.85-1.6,7.35l-25.65,53.43h-1.34L0,33.26h9.35l20.44,55.3,20.7-41.94c1.07-1.87,1.6-4.09,1.6-6.68s-.71-4.54-2.14-5.88Z"/>
      <path class="st0" d="M67.54,67.46c0,11.04,1.94,19.15,5.81,24.31,3.87,5.17,8.97,7.75,15.29,7.75,8.9,0,16.83-1.34,23.78-4.01l.4.94c-7.13,2.76-15.16,4.14-24.11,4.14s-16.23-2.67-21.84-8.01c-5.61-5.34-8.42-13.58-8.42-24.71s2.94-19.77,8.82-25.91,13.36-9.22,22.44-9.22c7.3,0,13.45,2.18,18.43,6.54,4.99,4.36,7.48,10.82,7.48,19.37v1.34h-47.69c-.27,2.4-.4,4.9-.4,7.48ZM101.6,39.94c-3.21-4.09-7.35-6.14-12.42-6.14s-9.6,2.23-13.56,6.68c-3.96,4.45-6.48,10.6-7.55,18.43h38.47c-.09-8.55-1.74-14.87-4.94-18.97Z"/>
      <path class="st0" d="M142.07,98.98h4.14v1.07h-4.14c-7.84,0-12.78-2.05-14.83-6.14-.45-.89-.67-1.69-.67-2.4V0h9.35v90.56c0,2.58.61,4.5,1.54,5.94,1.67,2.62,4.61,2.47,4.61,2.47Z"/>
      <path class="st0" d="M254,39v-2.81c-4.01,1.6-7.66,4.83-10.95,9.68-3.29,4.85-5.03,9.42-5.21,13.69v40.47h-9.35V33.26h9.35v21.24c1.42-5.16,4.14-10.04,8.15-14.63,4.01-4.59,8.55-6.97,13.62-7.15h.53c1.78,0,3.27.6,4.47,1.8,1.2,1.2,1.8,2.69,1.8,4.47s-.6,3.25-1.8,4.41c-1.2,1.16-2.69,1.74-4.47,1.74s-3.25-.58-4.41-1.74c-1.16-1.16-1.74-2.63-1.74-4.41Z"/>
      <path class="st0" d="M309.2,44.55c0-.78.02-1.74-.47-2.94-.49-1.2-1.14-2.38-1.94-3.54-.8-1.16-2.23-2.16-4.27-3.01-2.05-.84-4.72-1.27-8.01-1.27s-7.15.6-11.55,1.8c-4.41,1.2-7.64,2.38-9.68,3.54l-.53-.93c7.93-3.65,15.98-5.48,24.18-5.48,9.17,0,15.23,1.65,18.17,4.94,2.31,2.58,3.47,5.3,3.47,8.15v44.75c0,2.58.51,4.57,1.54,5.94,1.96,2.63,4.61,2.47,4.61,2.47h4.14v1.07h-4.14c-6.06,0-10.83-.73-13.06-3.04-2.05-1.96-2.44-4.08-2.44-5.51v-2.81c-4.36,7.93-11.35,11.89-20.97,11.89-11.22,0-17.59-5.08-19.1-15.23-.18-1.07-.27-2.16-.27-3.27s.18-2.34.53-3.67c.35-1.34,1.38-2.8,3.07-4.41,3.38-3.21,10.82-5.16,22.31-5.88,2.85-.27,5.48-.4,7.88-.4s4.59.09,6.54.27v-23.44ZM290.36,99.51c4.72,0,8.97-1.62,12.76-4.88,3.78-3.25,5.81-6.39,6.08-9.42v-16.16c-2.4-.18-4.83-.27-7.28-.27s-4.88.13-7.28.4c-6.77.8-11.18,2.32-13.22,4.54-2.05,2.23-3.07,5.3-3.07,9.22,0,.71.04,1.52.13,2.4.8,9.44,4.76,14.16,11.89,14.16Z"/>
      <g>
        <path class="st0" d="M194.45,94.74c12.15-5.53,18.8-18.53,16.2-30.81-2.93-13.82-16.85-23.21-29.66-21.2-7.59,1.19-16.42,6.63-19.19,16.27-2.02,7.04-.42,14.95,4.5,20.68,5.88,6.85,15.56,9.51,24.57,6.72,7.38-2.71,3.94,2.56.29,5.27-2.69,2.12-5.85,3.11-8.78,4.32-1.29.91,1.45,1.27,2.26,1.38,2.13.26,4.58.04,5.27.72.19.16.27.37.21.61-1.35,2.52-7.82,2.04-10.52,1.86-16.23-1.48-29.68-15.41-30.57-31.66-1.61-23.37,20.79-41.63,43.35-35.14,21.52,5.99,31.45,31.34,19.9,50.4-1.65,2.6-3.49,5.39-6.04,7.2-.59.38-.94.3-.58-.33,1.44-2.21,4.81-5.39,5.86-8.09.65-1.43.78-2.52.14-2-1.36,1.39-2.51,3.47-3.86,5-2.35,2.89-4.75,5.24-7.77,7.08-1.88,1.08-4.2,2.54-6.36,2.71-.08-.01-.12-.04-.14-.08-.06-.14.25-.44.94-.92Z"/>
        <path class="st0" d="M197.3,97.69c-.6.27-1.8.02-.96-.78.92-.74,2.17-1.19,3.19-1.81.54-.31,2.11-1.12,2.09-.05-.14.46-.57.68-1.03.96-.87.45-2.33,1.31-3.2,1.65l-.09.03Z"/>
      </g>
    </g>
    <g>
      <path class="st0" d="M318.31,29.86v-5.52h-2.13v-.56h4.91v.56h-2.13v5.52h-.64Z"/>
      <path class="st0" d="M322.11,29.86v-6.08h.53l2.77,4.74h-.28l2.75-4.74h.53v6.08h-.62v-5.11h.15l-2.53,4.34h-.3l-2.55-4.34h.17v5.11h-.62Z"/>
    </g>
  </g>
</svg>