<?xml version="1.0" encoding="UTF-8"?>
<svg id="Layer_1" xmlns="http://www.w3.org/2000/svg" version="1.1" viewBox="0 0 467.25 162.52">
  <!-- Generator: Adobe Illustrator 30.2.0, SVG Export Plug-In . SVG Version: 2.1.1 Build 105)  -->
  <defs>
    <style>
      .st0 {
        fill: #a4926e;
      }

      .st1 {
        fill: #231f20;
      }
    </style>
  </defs>
  <g>
    <g>
      <path class="st1" d="M314.59,17.86l.42-.42c.19.09.43.37.74.84.3.47.49.89.56,1.26.07.37.11.72.11,1.05,0,1.26-.28,2.55-.84,3.85l-13.44,28.01h-.7l-13.02-35.01h4.9l10.71,28.99,10.85-21.99c.56-.98.84-2.15.84-3.5s-.37-2.38-1.12-3.08Z"/>
      <path class="st1" d="M323.81,35.36c0,5.79,1.02,10.04,3.05,12.74,2.03,2.71,4.7,4.06,8.02,4.06,4.67,0,8.82-.7,12.46-2.1l.21.49c-3.74,1.45-7.95,2.17-12.64,2.17s-8.51-1.4-11.45-4.2c-2.94-2.8-4.41-7.12-4.41-12.95s1.54-10.36,4.62-13.58c3.08-3.22,7-4.83,11.76-4.83,3.83,0,7.05,1.14,9.66,3.43,2.61,2.29,3.92,5.67,3.92,10.15v.7h-25c-.14,1.26-.21,2.57-.21,3.92ZM341.66,20.94c-1.68-2.15-3.85-3.22-6.51-3.22s-5.03,1.17-7.11,3.5c-2.08,2.33-3.4,5.56-3.96,9.66h20.17c-.05-4.48-.91-7.8-2.59-9.94Z"/>
      <path class="st1" d="M362.88,51.89h2.17v.56h-2.17c-4.11,0-6.7-1.07-7.77-3.22-.23-.47-.35-.89-.35-1.26V0h4.9v47.48c0,1.35.32,2.36.81,3.12.87,1.37,2.42,1.3,2.42,1.3Z"/>
      <path class="st1" d="M421.56,20.45v-1.47c-2.1.84-4.02,2.53-5.74,5.08-1.73,2.55-2.64,4.94-2.73,7.18v21.22h-4.9V17.44h4.9v11.13c.75-2.71,2.17-5.26,4.27-7.67,2.1-2.4,4.48-3.65,7.14-3.75h.28c.93,0,1.72.31,2.35.95.63.63.95,1.41.95,2.35s-.32,1.7-.95,2.31c-.63.61-1.41.91-2.35.91s-1.7-.3-2.31-.91c-.61-.61-.91-1.38-.91-2.31Z"/>
      <path class="st1" d="M450.49,23.35c0-.41.01-.91-.24-1.54-.26-.63-.6-1.25-1.02-1.86-.42-.61-1.17-1.13-2.24-1.58-1.07-.44-2.48-.67-4.2-.67s-3.75.32-6.06.95c-2.31.63-4,1.25-5.08,1.86l-.28-.49c4.15-1.91,8.38-2.87,12.67-2.87,4.81,0,7.98.86,9.52,2.59,1.21,1.35,1.82,2.78,1.82,4.27v23.46c0,1.35.27,2.39.81,3.12,1.03,1.38,2.42,1.3,2.42,1.3h2.17v.56h-2.17c-3.17,0-5.68-.38-6.84-1.59-1.07-1.03-1.28-2.14-1.28-2.89v-1.47c-2.29,4.16-5.95,6.23-10.99,6.23-5.88,0-9.22-2.66-10.01-7.98-.09-.56-.14-1.13-.14-1.72s.09-1.23.28-1.93c.19-.7.72-1.47,1.61-2.31,1.77-1.68,5.67-2.71,11.69-3.08,1.49-.14,2.87-.21,4.13-.21s2.4.05,3.43.14v-12.29ZM440.62,52.17c2.47,0,4.7-.85,6.69-2.56,1.98-1.7,3.05-3.35,3.19-4.94v-8.47c-1.26-.09-2.53-.14-3.82-.14s-2.56.07-3.82.21c-3.55.42-5.86,1.21-6.93,2.38-1.07,1.17-1.61,2.78-1.61,4.83,0,.37.02.79.07,1.26.42,4.95,2.5,7.42,6.23,7.42Z"/>
      <g>
        <path class="st0" d="M390.34,49.67c6.37-2.9,9.86-9.72,8.49-16.15-1.54-7.24-8.83-12.17-15.55-11.11-3.98.62-8.61,3.48-10.06,8.53-1.06,3.69-.22,7.83,2.36,10.84,3.08,3.59,8.16,4.99,12.88,3.52,3.87-1.42,2.06,1.34.15,2.77-1.41,1.11-3.07,1.63-4.6,2.27-.68.48.76.67,1.19.73,1.11.13,2.4.02,2.76.38.1.09.14.2.11.32-.71,1.32-4.1,1.07-5.51.97-8.51-.77-15.56-8.08-16.03-16.6-.84-12.25,10.9-21.82,22.72-18.42,11.28,3.14,16.49,16.43,10.43,26.42-.87,1.36-1.83,2.83-3.17,3.78-.31.2-.49.16-.31-.17.76-1.16,2.52-2.83,3.07-4.24.34-.75.41-1.32.07-1.05-.71.73-1.32,1.82-2.02,2.62-1.23,1.51-2.49,2.75-4.07,3.71-.99.56-2.2,1.33-3.33,1.42-.04,0-.07-.02-.07-.04-.03-.07.13-.23.49-.48Z"/>
        <path class="st0" d="M391.83,51.21c-.31.14-.94,0-.5-.41.48-.39,1.14-.62,1.67-.95.29-.16,1.1-.59,1.09-.03-.07.24-.3.36-.54.5-.46.24-1.22.68-1.68.87l-.05.02Z"/>
      </g>
    </g>
    <g>
      <path class="st1" d="M456.42,13.56v-5.83h-2.25v-.59h5.18v.59h-2.25v5.83h-.68Z"/>
      <path class="st1" d="M460.44,13.56v-6.41h.56l2.93,5h-.29l2.9-5h.56v6.41h-.65v-5.4h.16l-2.67,4.58h-.32l-2.69-4.58h.17v5.4h-.65Z"/>
    </g>
  </g>
  <path class="st1" d="M77.96,66.1c-2.1-4.38-4.19-7.98-6.28-10.8s-4.72-5.3-7.88-7.43c-3.16-2.14-6.85-3.26-11.08-3.37H17.11v22.05c0,5.49.02,12.47.06,20.93h19.07c2.91,0,5.39-.45,7.43-1.33,2.04-.89,3.7-1.98,4.99-3.28s2.29-2.6,3-3.9c.71-1.3,1.34-2.86,1.91-4.68h.22l-2.13,27.95h-.22c-.26-1.78-.65-3.32-1.15-4.62-.5-1.3-1.3-2.6-2.38-3.9-1.09-1.3-2.57-2.4-4.46-3.31-1.89-.91-4.29-1.36-7.21-1.36h-19.07c-.04,8.5-.06,15.5-.06,21.02v22.18h35.62c4.23-.15,7.92-1.29,11.08-3.42,3.16-2.13,5.78-4.61,7.88-7.43,2.1-2.82,4.19-6.4,6.28-10.75h.39l-4.04,23.16H0v-.22c1.83,0,3.4-.65,4.71-1.95,1.31-1.3,1.96-2.88,1.96-4.73V49.79c0-1.82-.66-3.38-1.96-4.67-1.31-1.3-2.88-1.95-4.71-1.95v-.22h74.32l4.04,23.16h-.39Z"/>
  <path class="st1" d="M128.51,133.51c1.76,0,3.26-.57,4.51-1.73,1.26-1.15,1.97-2.61,2.16-4.4v-33.4c0-3.71-.5-7.22-1.51-10.52s-2.51-5.97-4.49-8.02c-1.98-2.04-4.43-3.06-7.35-3.06h-.39c-6.13,0-11.57,1.78-16.3,5.35-4.73,3.56-8.01,8.16-9.84,13.81v35.35c0,1.85.65,3.42,1.96,4.7,1.31,1.28,2.9,1.92,4.77,1.92v.22h-23.84v-.22c1.83,0,3.4-.64,4.71-1.92,1.31-1.28,1.96-2.85,1.96-4.7v-48.38c0-1.86-.66-3.43-1.96-4.73-1.31-1.3-2.88-1.95-4.71-1.95v-.22h9.03c2.24,0,4.15.79,5.72,2.36s2.35,3.48,2.35,5.7v7.57c2.43-4.94,5.95-8.91,10.57-11.91,4.62-3,9.81-4.51,15.57-4.51h.39c5.95,0,11,1.61,15.17,4.84s6.87,7.57,8.1,13.02c2.24-5.3,5.75-9.61,10.52-12.91,4.77-3.3,10.18-4.95,16.24-4.95h.34c4.6,0,8.69.98,12.28,2.92,3.59,1.95,6.41,4.67,8.47,8.16,2.05,3.49,3.08,7.52,3.08,12.08v32.9c0,1.85.65,3.42,1.96,4.7,1.31,1.28,2.88,1.92,4.71,1.92v.22h-23.84v-.22c1.76,0,3.27-.57,4.54-1.73,1.27-1.15,1.98-2.61,2.13-4.4v-33.4c0-3.71-.49-7.22-1.48-10.52-.99-3.3-2.48-5.97-4.46-8.02-1.98-2.04-4.45-3.06-7.4-3.06h-.34c-6.24,0-11.76,1.84-16.54,5.51-4.79,3.68-8.04,8.43-9.76,14.25.04.59.06,1.21.06,1.84v32.9c0,1.85.65,3.42,1.96,4.7s2.88,1.92,4.71,1.92v.22h-23.78v-.22Z"/>
  <path class="st1" d="M238.56,70.83c5.91,0,11.28,1.43,16.13,4.29,4.84,2.86,8.71,6.69,11.61,11.5s4.35,10.14,4.35,16.01-1.45,11.15-4.35,15.98c-2.9,4.82-6.77,8.66-11.61,11.52-4.84,2.86-10.22,4.29-16.13,4.29s-11.87-1.67-17.22-5.01c-1.61-1-3.08-2.13-4.43-3.4v29.67c0,1.82.65,3.37,1.96,4.67,1.31,1.3,2.88,1.95,4.71,1.95v.22h-23.84v-.22c1.87,0,3.46-.65,4.77-1.95,1.31-1.3,1.96-2.86,1.96-4.67v-77.16c0-1.86-.65-3.43-1.96-4.73-1.31-1.3-2.9-1.95-4.77-1.95v-.22h9.09c2.13,0,3.97.72,5.5,2.17,1.53,1.45,2.39,3.27,2.58,5.46,6.24-5.6,13.46-8.41,21.65-8.41ZM233.12,132.34c5.31.63,9.79.04,13.44-1.78,3.64-1.82,6.51-4.47,8.61-7.96,2.09-3.49,3.48-7.42,4.15-11.8.67-4.38.69-8.8.06-13.28-.64-4.47-1.87-8.6-3.7-12.38-1.83-3.79-4.19-6.86-7.07-9.21-2.88-2.35-6.23-3.53-10.04-3.53-8.26,0-15.48,2.99-21.65,8.96v42.59c4.49,4.64,9.89,7.44,16.21,8.41Z"/>
  <path class="st1" d="M321.48,130.56c-8.08,4.08-16.2,4.92-24.37,2.51-8.17-2.41-14.52-7.52-19.04-15.31-4.11-8.02-4.97-16.08-2.55-24.19,2.41-8.11,7.54-14.39,15.4-18.84,8.08-4.12,16.2-4.97,24.37-2.56,8.17,2.41,14.52,7.51,19.04,15.31,4.11,8.02,4.95,16.08,2.52,24.19-2.43,8.11-7.55,14.41-15.37,18.9ZM291.7,76.06c-4.64,2.63-7.47,6.52-8.5,11.66-1.03,5.14-.67,10.63,1.06,16.48,1.74,5.85,4.47,11.16,8.19,15.95,3.72,4.79,8.03,8.16,12.93,10.11,4.9,1.95,10,1.58,15.31-1.09,4.93-2.82,7.98-6.77,9.14-11.86,1.16-5.08.86-10.47-.9-16.14s-4.55-10.85-8.38-15.5c-3.83-4.66-8.26-7.99-13.29-9.99-5.03-2.01-10.22-1.87-15.56.39Z"/>
  <path class="st1" d="M359.83,133.4v.22h-23.84v-.22c3.61.1,6.81-3.03,6.73-6.62v-48.37c.09-3.64-3.09-6.77-6.73-6.68v-.22h9.09c4.21-.08,7.8,3.33,8.08,7.52,3.03-5.31,10.05-7.56,16.69-7.6,3.36-.02,8.36,1.05,9.79,4.03,1.36,2.72,2.43,6.94-1.78,9.84-3.35,2.04-8.73-.52-9.9-3.87-1.74-5.19-3.32-6.19-6.98-6.43-3.84-.25-8.36,3.99-7.82,9.76v34.26c.1,8.53-1.23,13.31,6.68,14.39Z"/>
  <path class="st1" d="M385.75,73.78c-1.31-1.31-2.87-1.95-4.71-1.95v-.21h9.03c2.27,0,4.18.78,5.74,2.34,1.56,1.59,2.37,3.51,2.37,5.74v1.13h-2.44c-6.73,0-8.11-3.47-8.11-3.47-.21-1.38-.85-2.55-1.88-3.58Z"/>
  <path class="st1" d="M404.9,133.51v.21h-23.86v-.21c1.84,0,3.4-.64,4.71-1.91,1.31-1.27,1.98-2.87,1.98-4.71v-40.43h10.44v40.43c0,1.84.64,3.43,1.95,4.71,1.31,1.27,2.9,1.91,4.78,1.91Z"/>
  <path class="st1" d="M450.53,130.56c-8.08,4.08-16.2,4.92-24.37,2.51-8.17-2.41-14.52-7.52-19.04-15.31-4.11-8.02-4.97-16.08-2.55-24.19,2.41-8.11,7.54-14.39,15.4-18.84,8.08-4.12,16.2-4.97,24.37-2.56,8.17,2.41,14.52,7.51,19.04,15.31,4.11,8.02,4.95,16.08,2.52,24.19-2.43,8.11-7.55,14.41-15.37,18.9ZM420.75,76.06c-4.64,2.63-7.47,6.52-8.5,11.66-1.03,5.14-.67,10.63,1.06,16.48,1.74,5.85,4.47,11.16,8.19,15.95,3.72,4.79,8.03,8.16,12.93,10.11,4.9,1.95,10,1.58,15.31-1.09,4.93-2.82,7.98-6.77,9.14-11.86,1.16-5.08.86-10.47-.9-16.14-1.76-5.68-4.55-10.85-8.38-15.5-3.83-4.66-8.26-7.99-13.29-9.99-5.03-2.01-10.22-1.87-15.56.39Z"/>
</svg>